<!DOCTYPE svg PUBLIC "-//W3C//DTD SVG 20010904//EN" "http://www.w3.org/TR/2001/REC-SVG-20010904/DTD/svg10.dtd">
<svg version="1.0" xmlns="http://www.w3.org/2000/svg" viewBox="0 0 1150 1250" preserveAspectRatio="xMidYMid meet">
    <g>
        <path d="M482 1230 c-20 -13 -41 -38 -53 -65 l-19 -44 -160 -3 -159 -3 -35 -34 c-33 -32 -36 -40 -36 -90 0 -51 2 -57 43 -95 66 -62 84 -122 96 -321 7 -123 11 -141 41 -201 39 -80 121 -163 196 -200 52 -25 54 -28 54 -66 0 -32 7 -47 34 -74 31 -31 40 -34 91 -34 51 0 60 3 91 34 27 27 34 42 34 74 0 38 2 41 56 67 79 39 158 120 196 200 28 60 32 82 39 201 12 198 30 258 96 320 41 38 43 44 43 95 0 50 -3 58 -36 90 l-35 34 -159 3 -160 3 -19 44 c-27 61 -69 85 -146 85 -43 0 -70 -6 -93 -20z m129 -90 l24 -19 -60 0 -60 0 24 19 c13 11 29 20 36 20 7 0 23 -9 36 -20z m417 -147 c-3 -17 -33 -18 -453 -18 -420 0 -450 1 -453 18 -3 16 24 17 453 17 429 0 456 -1 453 -17z m-98 -126 c0 -2 -9 -39 -20 -82 -13 -49 -20 -111 -20 -167 l0 -88 -315 0 -315 0 0 88 c0 56 -7 118 -20 167 -11 43 -20 80 -20 82 0 1 160 3 355 3 195 0 355 -2 355 -3z m-80 -468 c-23 -42 -85 -101 -134 -127 -44 -23 -63 -27 -141 -27 -78 0 -97 4 -141 27 -49 26 -111 85 -134 127 l-11 21 286 0 286 0 -11 -21z m-262 -286 c-4 -22 -22 -20 -26 1 -2 10 3 16 13 16 10 0 15 -7 13 -17z"/>
    </g>
</svg>
