<?xml version="1.0" encoding="utf-8" ?>
<svg xmlns="http://www.w3.org/2000/svg" xmlns:xlink="http://www.w3.org/1999/xlink" viewBox="0 0 180 50">
	<defs>
		<clipPath id="clip_0">
			<path d="M155 0L25 0Q24.3597 0 23.7236 0.0291438Q23.0876 0.0582875 22.4571 0.116516Q21.8266 0.174744 21.2031 0.261937Q20.5795 0.349131 19.9641 0.465112Q19.3486 0.581093 18.7426 0.725625Q18.1366 0.870158 17.5412 1.04295Q16.9459 1.21573 16.3624 1.41643Q15.7788 1.61712 15.2084 1.8453Q14.6379 2.07349 14.0817 2.32871Q13.5254 2.58392 12.9845 2.86564Q12.4436 3.14737 11.9191 3.45502Q11.3947 3.76268 10.8877 4.09564Q10.3808 4.4286 9.89243 4.78619Q9.40405 5.14378 8.93522 5.52527Q8.46639 5.90675 8.01807 6.31136Q7.56976 6.71596 7.14286 7.14286Q6.71596 7.56976 6.31136 8.01807Q5.90675 8.46639 5.52527 8.93522Q5.14378 9.40405 4.78619 9.89243Q4.4286 10.3808 4.09564 10.8877Q3.76268 11.3947 3.45502 11.9191Q3.14737 12.4436 2.86564 12.9845Q2.58392 13.5254 2.32871 14.0817Q2.07349 14.6379 1.8453 15.2084Q1.61712 15.7788 1.41643 16.3624Q1.21573 16.9459 1.04295 17.5412Q0.870158 18.1366 0.725625 18.7426Q0.581093 19.3486 0.465112 19.9641Q0.349131 20.5795 0.261937 21.2031Q0.174744 21.8266 0.116516 22.4571Q0.0582875 23.0876 0.0291438 23.7236Q0 24.3597 0 25Q0 25.6403 0.0291438 26.2764Q0.0582875 26.9124 0.116516 27.5429Q0.174744 28.1734 0.261937 28.7969Q0.349131 29.4205 0.465112 30.0359Q0.581093 30.6514 0.725625 31.2574Q0.870158 31.8634 1.04295 32.4588Q1.21573 33.0541 1.41643 33.6377Q1.61712 34.2212 1.8453 34.7916Q2.07349 35.3621 2.32871 35.9184Q2.58392 36.4746 2.86564 37.0155Q3.14737 37.5564 3.45502 38.0809Q3.76268 38.6053 4.09564 39.1123Q4.4286 39.6192 4.78619 40.1076Q5.14378 40.596 5.52527 41.0648Q5.90675 41.5336 6.31136 41.9819Q6.71596 42.4302 7.14286 42.8571Q7.56976 43.284 8.01807 43.6887Q8.46639 44.0933 8.93522 44.4747Q9.40405 44.8562 9.89243 45.2138Q10.3808 45.5714 10.8877 45.9044Q11.3947 46.2373 11.9191 46.545Q12.4436 46.8526 12.9845 47.1344Q13.5254 47.4161 14.0817 47.6713Q14.6379 47.9265 15.2084 48.1547Q15.7788 48.3829 16.3624 48.5836Q16.9459 48.7843 17.5412 48.9571Q18.1366 49.1298 18.7426 49.2744Q19.3486 49.4189 19.9641 49.5349Q20.5795 49.6509 21.2031 49.7381Q21.8266 49.8253 22.4571 49.8835Q23.0876 49.9417 23.7236 49.9709Q24.3597 50 25 50L155 50Q155.64 50 156.276 49.9709Q156.912 49.9417 157.543 49.8835Q158.173 49.8253 158.797 49.7381Q159.421 49.6509 160.036 49.5349Q160.651 49.4189 161.257 49.2744Q161.863 49.1298 162.459 48.9571Q163.054 48.7843 163.638 48.5836Q164.221 48.3829 164.792 48.1547Q165.362 47.9265 165.918 47.6713Q166.475 47.4161 167.016 47.1344Q167.556 46.8526 168.081 46.545Q168.605 46.2373 169.112 45.9044Q169.619 45.5714 170.108 45.2138Q170.596 44.8562 171.065 44.4747Q171.534 44.0933 171.982 43.6887Q172.43 43.284 172.857 42.8571Q173.284 42.4302 173.689 41.9819Q174.093 41.5336 174.475 41.0648Q174.856 40.596 175.214 40.1076Q175.571 39.6192 175.904 39.1123Q176.237 38.6053 176.545 38.0809Q176.853 37.5564 177.134 37.0155Q177.416 36.4746 177.671 35.9184Q177.927 35.3621 178.155 34.7916Q178.383 34.2212 178.584 33.6377Q178.784 33.0541 178.957 32.4588Q179.13 31.8634 179.274 31.2574Q179.419 30.6514 179.535 30.0359Q179.651 29.4205 179.738 28.7969Q179.825 28.1734 179.883 27.5429Q179.942 26.9124 179.971 26.2764Q180 25.6403 180 25Q180 24.3597 179.971 23.7236Q179.942 23.0876 179.883 22.4571Q179.825 21.8266 179.738 21.2031Q179.651 20.5795 179.535 19.9641Q179.419 19.3486 179.274 18.7426Q179.13 18.1366 178.957 17.5412Q178.784 16.9459 178.584 16.3624Q178.383 15.7788 178.155 15.2084Q177.927 14.6379 177.671 14.0817Q177.416 13.5254 177.134 12.9845Q176.853 12.4436 176.545 11.9191Q176.237 11.3947 175.904 10.8877Q175.571 10.3808 175.214 9.89243Q174.856 9.40405 174.475 8.93522Q174.093 8.46639 173.689 8.01807Q173.284 7.56976 172.857 7.14286Q172.43 6.71596 171.982 6.31136Q171.534 5.90675 171.065 5.52527Q170.596 5.14378 170.108 4.78619Q169.619 4.4286 169.112 4.09564Q168.605 3.76268 168.081 3.45502Q167.556 3.14737 167.016 2.86564Q166.475 2.58392 165.918 2.32871Q165.362 2.07349 164.792 1.8453Q164.221 1.61712 163.638 1.41643Q163.054 1.21573 162.459 1.04295Q161.863 0.870158 161.257 0.725625Q160.651 0.581093 160.036 0.465112Q159.421 0.349131 158.797 0.261937Q158.173 0.174744 157.543 0.116516Q156.912 0.0582875 156.276 0.0291438Q155.64 0 155 0Z" clip-rule="evenodd"/>
		</clipPath>
		<linearGradient id="gradient_0" gradientUnits="userSpaceOnUse" x1="10.26392" y1="9.1110859" x2="180" y2="25">
			<stop offset="0" stop-color="rgb(254,148,124)"/>
			<stop offset="1" stop-color="rgb(255,189,113)"/>
		</linearGradient>
	</defs>
	<g clip-path="url(#clip_0)">
		<path fill="none" stroke="url(#gradient_0)" stroke-width="4" stroke-miterlimit="4" d="M25 0L155 0Q155.64 0 156.276 0.0291438Q156.912 0.0582875 157.543 0.116516Q158.173 0.174744 158.797 0.261937Q159.421 0.349131 160.036 0.465112Q160.651 0.581093 161.257 0.725625Q161.863 0.870158 162.459 1.04295Q163.054 1.21573 163.638 1.41643Q164.221 1.61712 164.792 1.8453Q165.362 2.07349 165.918 2.32871Q166.475 2.58392 167.016 2.86564Q167.556 3.14737 168.081 3.45502Q168.605 3.76268 169.112 4.09564Q169.619 4.4286 170.108 4.78619Q170.596 5.14378 171.065 5.52527Q171.534 5.90675 171.982 6.31136Q172.43 6.71596 172.857 7.14286Q173.284 7.56976 173.689 8.01807Q174.093 8.46639 174.475 8.93522Q174.856 9.40405 175.214 9.89243Q175.571 10.3808 175.904 10.8877Q176.237 11.3947 176.545 11.9191Q176.853 12.4436 177.134 12.9845Q177.416 13.5254 177.671 14.0817Q177.927 14.6379 178.155 15.2084Q178.383 15.7788 178.584 16.3624Q178.784 16.9459 178.957 17.5412Q179.13 18.1366 179.274 18.7426Q179.419 19.3486 179.535 19.9641Q179.651 20.5795 179.738 21.2031Q179.825 21.8266 179.883 22.4571Q179.942 23.0876 179.971 23.7236Q180 24.3597 180 25L180 25Q180 25.6403 179.971 26.2764Q179.942 26.9124 179.883 27.5429Q179.825 28.1734 179.738 28.7969Q179.651 29.4205 179.535 30.0359Q179.419 30.6514 179.274 31.2574Q179.13 31.8634 178.957 32.4588Q178.784 33.0541 178.584 33.6377Q178.383 34.2212 178.155 34.7916Q177.927 35.3621 177.671 35.9184Q177.416 36.4746 177.134 37.0155Q176.853 37.5564 176.545 38.0809Q176.237 38.6053 175.904 39.1123Q175.571 39.6192 175.214 40.1076Q174.856 40.596 174.475 41.0648Q174.093 41.5336 173.689 41.9819Q173.284 42.4302 172.857 42.8571Q172.43 43.284 171.982 43.6887Q171.534 44.0933 171.065 44.4747Q170.596 44.8562 170.108 45.2138Q169.619 45.5714 169.112 45.9044Q168.605 46.2373 168.081 46.545Q167.556 46.8526 167.016 47.1344Q166.475 47.4161 165.918 47.6713Q165.362 47.9265 164.792 48.1547Q164.221 48.3829 163.638 48.5836Q163.054 48.7843 162.459 48.9571Q161.863 49.1298 161.257 49.2744Q160.651 49.4189 160.036 49.5349Q159.421 49.6509 158.797 49.7381Q158.173 49.8253 157.543 49.8835Q156.912 49.9417 156.276 49.9709Q155.64 50 155 50L25 50Q24.3597 50 23.7236 49.9709Q23.0876 49.9417 22.4571 49.8835Q21.8266 49.8253 21.2031 49.7381Q20.5795 49.6509 19.9641 49.5349Q19.3486 49.4189 18.7426 49.2744Q18.1366 49.1298 17.5412 48.9571Q16.9459 48.7843 16.3624 48.5836Q15.7788 48.3829 15.2084 48.1547Q14.6379 47.9265 14.0817 47.6713Q13.5254 47.4161 12.9845 47.1344Q12.4436 46.8526 11.9191 46.545Q11.3947 46.2373 10.8877 45.9044Q10.3808 45.5714 9.89243 45.2138Q9.40405 44.8562 8.93522 44.4747Q8.46639 44.0933 8.01807 43.6887Q7.56976 43.284 7.14286 42.8571Q6.71596 42.4302 6.31136 41.9819Q5.90675 41.5336 5.52527 41.0648Q5.14378 40.596 4.78619 40.1076Q4.4286 39.6192 4.09564 39.1123Q3.76268 38.6053 3.45502 38.0809Q3.14737 37.5564 2.86564 37.0155Q2.58392 36.4746 2.32871 35.9184Q2.07349 35.3621 1.8453 34.7916Q1.61712 34.2212 1.41643 33.6377Q1.21573 33.0541 1.04295 32.4588Q0.870158 31.8634 0.725625 31.2574Q0.581093 30.6514 0.465112 30.0359Q0.349131 29.4205 0.261937 28.7969Q0.174744 28.1734 0.116516 27.5429Q0.0582875 26.9124 0.0291438 26.2764Q0 25.6403 0 25L0 25Q0 24.3597 0.0291438 23.7236Q0.0582875 23.0876 0.116516 22.4571Q0.174744 21.8266 0.261937 21.2031Q0.349131 20.5795 0.465112 19.9641Q0.581093 19.3486 0.725625 18.7426Q0.870158 18.1366 1.04295 17.5412Q1.21573 16.9459 1.41643 16.3624Q1.61712 15.7788 1.8453 15.2084Q2.07349 14.6379 2.32871 14.0817Q2.58392 13.5254 2.86564 12.9845Q3.14737 12.4436 3.45502 11.9191Q3.76268 11.3947 4.09564 10.8877Q4.4286 10.3808 4.78619 9.89243Q5.14378 9.40405 5.52527 8.93522Q5.90675 8.46639 6.31136 8.01807Q6.71596 7.56976 7.14286 7.14286Q7.56976 6.71596 8.01807 6.31136Q8.46639 5.90675 8.93522 5.52527Q9.40405 5.14378 9.89243 4.78619Q10.3808 4.4286 10.8877 4.09564Q11.3947 3.76268 11.9191 3.45502Q12.4436 3.14737 12.9845 2.86564Q13.5254 2.58392 14.0817 2.32871Q14.6379 2.07349 15.2084 1.8453Q15.7788 1.61712 16.3624 1.41643Q16.9459 1.21573 17.5412 1.04295Q18.1366 0.870158 18.7426 0.725625Q19.3486 0.581093 19.9641 0.465112Q20.5795 0.349131 21.2031 0.261937Q21.8266 0.174744 22.4571 0.116516Q23.0876 0.0582875 23.7236 0.0291438Q24.3597 0 25 0Z"/>
	</g>
</svg>
