<!DOCTYPE svg PUBLIC "-//W3C//DTD SVG 20010904//EN" "http://www.w3.org/TR/2001/REC-SVG-20010904/DTD/svg10.dtd">
<svg version="1.0" xmlns="http://www.w3.org/2000/svg"  viewBox="0 0 130 130" preserveAspectRatio="xMidYMid meet">
<g id="layer101" fill="#616161" stroke="none">
 <path d="M3 115 c-3 -9 2 -24 11 -34 15 -16 15 -19 1 -31 -8 -7 -15 -19 -15 -27 0 -22 29 -27 49 -9 16 15 19 15 31 1 7 -8 19 -15 27 -15 22 0 27 29 9 49 -15 16 -15 19 -1 31 8 7 15 19 15 27 0 22 -29 27 -49 9 -16 -15 -19 -15 -31 -1 -16 19 -39 19 -47 0z"/>
 </g>

</svg>