<svg width="30" height="25" xmlns="http://www.w3.org/2000/svg">

 <g>
  <title>background</title>
  <rect fill="none" id="canvas_background" height="402" width="582" y="-1" x="-1"/>
 </g>
 <g>
  <title>Layer 1</title>
  <g id="svg_94">
   <path fill="rgb(246,246,246)" d="m7.050411,0l15.7112,0q0.15,0 0.3108,0.02137q0.1609,0.02137 0.3275,0.06342q0.1665,0.04205 0.3333,0.1034q0.1669,0.06136 0.3285,0.14002q0.1617,0.07866 0.3129,0.17207q0.1512,0.09342 0.2871,0.19853q0.1358,0.10512 0.2519,0.21852q0.1161,0.11341 0.2086,0.2314l4.327,5.51774q0.0461,0.05887 0.087,0.12186q0.0409,0.06298 0.0761,0.12955q0.0352,0.06658 0.0645,0.1362q0.0293,0.06962 0.0524,0.14172q0.0231,0.0721 0.0398,0.1461q0.0168,0.07399 0.027,0.14928q0.0103,0.07528 0.014,0.15124q0.0037,0.07596 0.0007,0.15197q-0.0029,0.07602 -0.0124,0.15147q-0.0095,0.07545 -0.0256,0.14972q-0.016,0.07427 -0.0384,0.14675q-0.0224,0.07248 -0.051,0.14259q-0.0286,0.07011 -0.0632,0.13727q-0.0345,0.06716 -0.0748,0.13082q-0.0402,0.06366 -0.0858,0.12331q-0.0456,0.05964 -0.0962,0.11479l-13.4706,14.68939q-0.0506,0.0551 -0.105,0.1044q-0.0544,0.0493 -0.1122,0.0923q-0.0577,0.043 -0.1184,0.0794q-0.0606,0.0364 -0.1237,0.0659q-0.0631,0.0295 -0.128,0.0518q-0.065,0.0223 -0.1313,0.0373q-0.0664,0.015 -0.1335,0.0225q-0.0672,0.0075 -0.1346,0.0075q-0.0674,0 -0.1346,-0.0075q-0.0671,-0.0075 -0.1335,-0.0225q-0.0663,-0.015 -0.1312,-0.0373q-0.065,-0.0223 -0.1281,-0.0518q-0.0631,-0.0295 -0.1237,-0.0659q-0.0607,-0.0364 -0.1184,-0.0794q-0.0578,-0.043 -0.1122,-0.0923q-0.0544,-0.0493 -0.1049,-0.1044l-13.47074,-14.68939q-0.05057,-0.05515 -0.09616,-0.11479q-0.04559,-0.05965 -0.08583,-0.12331q-0.04024,-0.06366 -0.07479,-0.13082q-0.03456,-0.06716 -0.06316,-0.13727q-0.0286,-0.0701 -0.051,-0.14259q-0.02241,-0.07248 -0.03843,-0.14675q-0.01603,-0.07427 -0.02555,-0.14972q-0.00952,-0.07545 -0.01245,-0.15147q-0.00293,-0.07601 0.00074,-0.15197q0.00368,-0.07596 0.01394,-0.15124q0.01025,-0.07529 0.02701,-0.14928q0.01675,-0.074 0.03986,-0.1461q0.02311,-0.0721 0.05239,-0.14172q0.02929,-0.06962 0.0645,-0.1362q0.03521,-0.06657 0.07607,-0.12955q0.04086,-0.06299 0.08703,-0.12186l4.32693,-5.51774q0.09253,-0.11799 0.20862,-0.2314q0.11609,-0.1134 0.25195,-0.21852q0.13587,-0.10511 0.28709,-0.19853q0.15122,-0.09341 0.31288,-0.17207q0.16165,-0.07866 0.32847,-0.14002q0.16682,-0.06135 0.33338,-0.1034q0.16655,-0.04205 0.32743,-0.06342q0.16087,-0.02137 0.31082,-0.02137z" id="svg_71"/>
   <path fill="rgb(40,45,54)" d="m6.006784,2.532169l0.60415,-0.76754q0.03721,-0.04727 0.08387,-0.0927q0.04666,-0.04544 0.10124,-0.08755q0.05459,-0.04212 0.11533,-0.07954q0.06075,-0.03743 0.12566,-0.06894q0.06492,-0.03152 0.13189,-0.0561q0.06698,-0.02458 0.13383,-0.04143q0.06686,-0.01685 0.13142,-0.02541q0.06456,-0.00856 0.12472,-0.00856l5.60575,0q0.0703,0 0.14693,0.02077q0.07664,0.02076 0.14971,0.05961q0.07308,0.03885 0.13316,0.09077q0.06007,0.05191 0.09939,0.11018l0,0q0.01949,0.0289 0.03316,0.06043q0.01366,0.03153 0.02105,0.06467q0.00738,0.03313 0.00825,0.06679q0.00086,0.03366 -0.00482,0.06676q-0.00568,0.03309 -0.01772,0.06453q-0.01205,0.03145 -0.03006,0.06022q-0.01802,0.02878 -0.04141,0.05394q-0.0234,0.02517 -0.05142,0.04591l-5.13833,3.8034q-0.04836,0.03579 -0.10126,0.06139q-0.0529,0.0256 -0.10862,0.04017q-0.05572,0.01457 -0.11245,0.01765q-0.05673,0.00307 -0.11262,-0.00546q-0.05589,-0.00853 -0.10912,-0.02839q-0.05323,-0.01985 -0.10206,-0.05038q-0.04884,-0.03054 -0.0917,-0.07075q-0.04285,-0.04021 -0.07833,-0.0888l-1.66647,-2.28238q-0.03548,-0.04859 -0.06284,-0.10385q-0.02735,-0.05526 -0.0457,-0.11539q-0.01834,-0.06013 -0.02708,-0.12318q-0.00874,-0.06304 -0.00758,-0.12695q0.00115,-0.06391 0.01216,-0.1266q0.01102,-0.06269 0.03152,-0.12212q0.02051,-0.05943 0.04985,-0.11366q0.02934,-0.05424 0.06655,-0.10151z" id="svg_72"/>
   <path fill="rgb(40,45,54)" d="m24.069721,2.53217l-0.60415,-0.76754q-0.03721,-0.04727 -0.08387,-0.0927q-0.04666,-0.04544 -0.10124,-0.08755q-0.05459,-0.04212 -0.11533,-0.07954q-0.06075,-0.03743 -0.12566,-0.06894q-0.06492,-0.03152 -0.13189,-0.0561q-0.06698,-0.02458 -0.13383,-0.04143q-0.06686,-0.01685 -0.13142,-0.02541q-0.06456,-0.00856 -0.12472,-0.00856l-5.60575,0q-0.0703,0 -0.14693,0.02077q-0.07664,0.02076 -0.14971,0.05961q-0.07308,0.03885 -0.13316,0.09077q-0.06007,0.05191 -0.09939,0.11018l0,0q-0.01949,0.0289 -0.03316,0.06043q-0.01366,0.03153 -0.02105,0.06467q-0.00738,0.03313 -0.00825,0.06679q-0.00086,0.03366 0.00482,0.06676q0.00568,0.03309 0.01772,0.06453q0.01205,0.03145 0.03006,0.06022q0.01802,0.02878 0.04141,0.05394q0.0234,0.02517 0.05142,0.04591l5.13833,3.8034q0.04836,0.03579 0.10126,0.06139q0.0529,0.0256 0.10862,0.04017q0.05572,0.01457 0.11245,0.01765q0.05673,0.00307 0.11262,-0.00546q0.05589,-0.00853 0.10912,-0.02839q0.05323,-0.01985 0.10206,-0.05038q0.04884,-0.03054 0.0917,-0.07075q0.04285,-0.04021 0.07833,-0.0888l1.66647,-2.28238q0.03548,-0.04859 0.06284,-0.10385q0.02735,-0.05526 0.0457,-0.11539q0.01834,-0.06013 0.02708,-0.12318q0.00874,-0.06304 0.00758,-0.12695q-0.00115,-0.06391 -0.01216,-0.1266q-0.01102,-0.06269 -0.03152,-0.12212q-0.02051,-0.05943 -0.04985,-0.11366q-0.02934,-0.05424 -0.06655,-0.10151z" id="svg_73"/>
   <path fill="rgb(40,45,54)" d="m20.542611,6.44408l-5.15165,-3.64881q-0.04909,-0.03477 -0.10517,-0.0619q-0.05608,-0.02712 -0.11731,-0.0457q-0.06123,-0.01859 -0.12563,-0.02804q-0.06439,-0.00945 -0.12985,-0.00945q-0.06546,0 -0.12985,0.00945q-0.0644,0.00945 -0.12563,0.02804q-0.06123,0.01858 -0.11731,0.0457q-0.05608,0.02713 -0.10517,0.0619l-5.15163,3.64881q-0.0491,0.03477 -0.0854,0.06819q-0.0363,0.03342 -0.0586,0.0644q-0.0223,0.03098 -0.0299,0.0585q-0.0076,0.02753 -0.0002,0.05071q0.0074,0.02319 0.0295,0.04127q0.0221,0.01808 0.0582,0.03047q0.0361,0.01239 0.085,0.01869q0.049,0.0063 0.1091,0.0063l11.04375,0q0.06016,0 0.10909,-0.0063q0.04893,-0.0063 0.08503,-0.01869q0.03611,-0.01239 0.0582,-0.03047q0.0221,-0.01808 0.02948,-0.04127q0.00738,-0.02318 -0.0002,-0.05071q-0.00759,-0.02752 -0.02989,-0.0585q-0.02229,-0.03098 -0.05858,-0.0644q-0.03629,-0.03342 -0.08538,-0.06819z" id="svg_74"/>
   <path fill="rgb(40,45,54)" d="m21.023911,8.3573l-5.80604,12.50374q-0.02533,0.05457 -0.05418,0.09708q-0.02885,0.04252 -0.06027,0.0716q-0.03142,0.02909 -0.06439,0.04379q-0.03297,0.01471 -0.06642,0.01455q-0.03345,-0.00015 -0.06628,-0.01516q-0.03283,-0.01501 -0.06398,-0.04439q-0.03115,-0.02937 -0.05961,-0.07215q-0.02845,-0.04278 -0.05328,-0.09758l-5.66385,-12.49918q-0.0248,-0.0548 -0.0378,-0.1075q-0.0129,-0.0526 -0.0136,-0.1014q-0.0007,-0.0489 0.0109,-0.0922q0.0117,-0.0434 0.0352,-0.08q0.0236,-0.0365 0.0583,-0.065q0.0347,-0.0285 0.0794,-0.048q0.0448,-0.0195 0.0981,-0.0295q0.0533,-0.0099 0.1135,-0.0099l11.27526,0q0.06017,0 0.1134,0.0099q0.05323,0.0099 0.0978,0.0293q0.04456,0.0195 0.07902,0.0478q0.03445,0.0284 0.05767,0.0648q0.02321,0.0364 0.03444,0.0796q0.01122,0.0432 0.01009,0.0918q-0.00114,0.0486 -0.01459,0.101q-0.01346,0.0525 -0.03879,0.107z" id="svg_75"/>
   <path fill="rgb(40,45,54)" d="m7.671711,8.093l6.11999,12.72662q0.01772,0.03685 0.02987,0.0667q0.01215,0.02985 0.01834,0.05172q0.00618,0.02188 0.0062,0.03506q0.00001,0.01319 -0.00614,0.01725q-0.00615,0.00407 -0.01827,-0.00112q-0.01212,-0.00519 -0.02982,-0.01945q-0.01769,-0.01427 -0.04039,-0.03716q-0.02269,-0.02288 -0.04964,-0.05364l-11.28044,-12.87328q-0.0397,-0.0453 -0.0669,-0.0888q-0.0272,-0.0434 -0.0411,-0.0838q-0.0139,-0.0403 -0.014,-0.0761q-0.0001,-0.0358 0.0136,-0.066q0.0137,-0.0301 0.0407,-0.0537q0.027,-0.0235 0.0665,-0.0396q0.0394,-0.0161 0.0901,-0.0243q0.0506,-0.0082 0.1108,-0.0082l4.21107,0q0.06016,0 0.1227,0.0098q0.06254,0.0098 0.12543,0.0291q0.06289,0.0194 0.12407,0.0475q0.06119,0.0282 0.11868,0.0644q0.05749,0.0361 0.10941,0.0791q0.05193,0.0429 0.09659,0.0912q0.04467,0.0483 0.08062,0.1004q0.03596,0.0521 0.06203,0.1063z" id="svg_76"/>
   <path fill="rgb(40,45,54)" d="m22.499738,8.3539l-6.11999,12.72662q-0.01772,0.03685 -0.02987,0.0667q-0.01215,0.02985 -0.01834,0.05172q-0.00618,0.02188 -0.0062,0.03506q-0.00001,0.01319 0.00614,0.01725q0.00615,0.00407 0.01827,-0.00112q0.01212,-0.00519 0.02982,-0.01945q0.01769,-0.01427 0.04039,-0.03716q0.02269,-0.02288 0.04964,-0.05364l11.28044,-12.87328q0.0397,-0.0453 0.0669,-0.0888q0.0272,-0.0434 0.0411,-0.0838q0.0139,-0.0403 0.014,-0.0761q0.0001,-0.0358 -0.0136,-0.066q-0.0137,-0.0301 -0.0407,-0.0537q-0.027,-0.0235 -0.0665,-0.0396q-0.0394,-0.0161 -0.0901,-0.0243q-0.0506,-0.0082 -0.1108,-0.0082l-4.21107,0q-0.06016,0 -0.1227,0.0098q-0.06254,0.0098 -0.12543,0.0291q-0.06289,0.0194 -0.12407,0.0475q-0.06119,0.0282 -0.11868,0.0644q-0.05749,0.0361 -0.10941,0.0791q-0.05193,0.0429 -0.09659,0.0912q-0.04467,0.0483 -0.08062,0.1004q-0.03596,0.0521 -0.06203,0.1063z" id="svg_77"/>
   <path fill="rgb(40,45,54)" d="m6.844051,6.30078l-1.54342,-2.23308q-0.0342,-0.0495 -0.074,-0.08865q-0.03981,-0.03915 -0.08391,-0.06669q-0.0441,-0.02754 -0.09106,-0.04258q-0.04697,-0.01503 -0.09527,-0.01706q-0.0483,-0.00203 -0.09636,0.009q-0.04806,0.01103 -0.09432,0.03477q-0.04626,0.02374 -0.08921,0.05941q-0.04295,0.03567 -0.0812,0.08211l-1.88775,2.29246q-0.03824,0.04644 -0.0641,0.09107q-0.02586,0.04464 -0.03849,0.08601q-0.01263,0.04138 -0.01162,0.07814q0.00101,0.03677 0.01562,0.06773q0.01461,0.03096 0.04235,0.05511q0.02774,0.02415 0.06771,0.0407q0.03997,0.01655 0.09087,0.02496q0.05089,0.00841 0.11105,0.00841l3.67042,0q0.06017,0 0.11179,-0.00896q0.05163,-0.00896 0.09303,-0.0266q0.04141,-0.01764 0.07125,-0.04337q0.02984,-0.02573 0.04715,-0.05873q0.0173,-0.03299 0.0215,-0.07217q0.00421,-0.03918 -0.00483,-0.08327q-0.00903,-0.04409 -0.03101,-0.09166q-0.02198,-0.04756 -0.05619,-0.09706z" id="svg_78"/>
   <path fill="rgb(40,45,54)" d="m23.206512,6.282811l1.34233,-2.19712q0.03136,-0.05134 0.06843,-0.09227q0.03707,-0.04092 0.07864,-0.07011q0.04157,-0.02919 0.08629,-0.04568q0.04472,-0.0165 0.09112,-0.01976q0.04641,-0.00326 0.09299,0.00681q0.04659,0.01007 0.09184,0.03315q0.04524,0.02308 0.08768,0.05841q0.04244,0.03534 0.08068,0.08178l1.88775,2.29246q0.03824,0.04644 0.0641,0.09107q0.02586,0.04464 0.03849,0.08601q0.01263,0.04138 0.01162,0.07814q-0.001,0.03677 -0.01562,0.06773q-0.01461,0.03096 -0.04235,0.05511q-0.02774,0.02415 -0.06771,0.0407q-0.03997,0.01655 -0.09086,0.02496q-0.0509,0.00841 -0.11106,0.00841l-3.41401,0q-0.06016,0 -0.1123,-0.00929q-0.05214,-0.0093 -0.09456,-0.0276q-0.04242,-0.01829 -0.07374,-0.04499q-0.03132,-0.02669 -0.05052,-0.06092q-0.0192,-0.03422 -0.02565,-0.07487q-0.00645,-0.04064 0.00005,-0.08638q0.00651,-0.04573 0.02576,-0.09507q0.01924,-0.04934 0.05061,-0.10068z" id="svg_79"/>
  </g>
 </g>
</svg>