<!DOCTYPE svg PUBLIC "-//W3C//DTD SVG 20010904//EN" "http://www.w3.org/TR/2001/REC-SVG-20010904/DTD/svg10.dtd">
<svg version="1.0" xmlns="http://www.w3.org/2000/svg" viewBox="0 0 250 750" preserveAspectRatio="xMidYMid meet">
    <g>
        <path d="M49 721 c-43 -43 -41 -96 5 -140 46 -45 100 -47 150 -5 30 25 35 35 35 76 1 40 -3 50 -30 72 -24 20 -41 26 -81 26 -41 0 -54 -5 -79 -29z"/>
        <path d="M55 449 c-30 -27 -35 -37 -35 -74 0 -37 5 -47 35 -74 47 -41 97 -42 148 -4 33 26 36 32 36 78 0 46 -3 52 -36 78 -51 38 -101 37 -148 -4z"/>
        <path d="M105 203 c-11 -3 -35 -19 -53 -36 -44 -42 -45 -96 -3 -138 25 -24 38 -29 79 -29 40 0 57 6 81 26 27 22 31 32 30 72 0 40 -5 51 -32 73 -34 28 -70 39 -102 32z"/>
    </g>

</svg>
