<!DOCTYPE svg PUBLIC "-//W3C//DTD SVG 20010904//EN" "http://www.w3.org/TR/2001/REC-SVG-20010904/DTD/svg10.dtd">
<svg version="1.0" xmlns="http://www.w3.org/2000/svg" viewBox="0 0 1250 1250" preserveAspectRatio="xMidYMid meet">
    <g>
        <path d="M62 1043 c-61 -30 -62 -34 -62 -440 0 -404 -1 -396 60 -428 43 -22 1087 -22 1130 0 61 32 60 24 60 428 0 408 0 411 -64 441 -30 14 -94 16 -563 16 -467 0 -532 -2 -561 -17z m1083 -106 c3 -7 4 -143 3 -304 l-3 -292 -235 170 c-129 94 -247 177 -262 185 -31 16 -29 17 -343 -210 l-200 -145 -3 292 c-1 160 0 297 3 304 7 19 1033 19 1040 0z m-303 -509 l211 -153 -211 -3 c-116 -1 -308 -1 -428 0 l-217 3 209 152 c115 83 212 152 217 152 4 1 102 -68 219 -151z"/>
    </g>

</svg>
