<!DOCTYPE svg PUBLIC "-//W3C//DTD SVG 20010904//EN" "http://www.w3.org/TR/2001/REC-SVG-20010904/DTD/svg10.dtd">
<svg version="1.0" xmlns="http://www.w3.org/2000/svg" viewBox="0 0 1000 750" preserveAspectRatio="xMidYMid meet">
<g id="layer101" fill="#f7f7f7" stroke="none">
 <path d="M31 694 l-31 -26 0 -308 0 -309 26 -20 c26 -21 37 -21 474 -21 437 0 448 0 474 21 l26 20 0 309 0 308 -31 26 -31 26 -438 0 -438 0 -31 -26z m885 -77 c2 -7 3 -114 2 -239 l-3 -227 -200 145 c-110 79 -207 144 -215 144 -8 0 -105 -65 -215 -144 l-200 -145 -3 227 c-1 125 0 232 2 239 8 19 824 19 832 0z m-243 -404 l164 -118 -169 -3 c-92 -1 -244 -1 -336 0 l-169 3 161 117 c89 64 167 117 173 117 7 1 86 -52 176 -116z"/>
 </g>
</svg>