<!DOCTYPE svg PUBLIC "-//W3C//DTD SVG 20010904//EN" "http://www.w3.org/TR/2001/REC-SVG-20010904/DTD/svg10.dtd">
<svg version="1.0" xmlns="http://www.w3.org/2000/svg" viewBox="0 0 1250 1250" preserveAspectRatio="xMidYMid meet">
    <g>
        <path d="M465 1224 c-19 -21 -25 -38 -25 -75 0 -26 -5 -51 -10 -54 -6 -4 -31 12 -55 34 -68 62 -91 57 -198 -48 -111 -107 -119 -138 -56 -206 22 -24 38 -49 34 -55 -3 -5 -24 -10 -46 -10 -45 0 -94 -21 -103 -45 -8 -22 -8 -258 0 -280 9 -24 58 -45 103 -45 22 0 43 -5 46 -10 4 -6 -12 -31 -34 -55 -62 -68 -57 -91 48 -198 107 -111 138 -119 206 -56 24 22 49 38 55 34 5 -3 10 -28 10 -54 0 -37 6 -54 25 -75 24 -26 26 -26 160 -26 131 0 137 1 160 25 20 19 25 34 25 74 0 27 5 53 10 56 6 4 31 -12 55 -34 71 -65 90 -60 202 52 111 112 117 131 54 200 -21 23 -36 48 -34 55 3 7 24 12 54 12 40 0 55 5 74 25 24 23 25 29 25 159 l0 134 -31 26 c-23 19 -42 26 -74 26 -24 0 -47 5 -50 10 -4 6 12 31 34 55 63 68 58 89 -36 187 -119 123 -148 131 -218 67 -24 -22 -49 -38 -55 -34 -5 3 -10 29 -10 56 0 40 -5 55 -25 74 -23 24 -29 25 -160 25 -134 0 -136 0 -160 -26z m235 -127 c0 -39 5 -58 18 -70 20 -18 107 -57 128 -57 8 0 35 19 60 42 l45 41 54 -53 54 -54 -39 -33 c-21 -19 -42 -42 -45 -53 -8 -25 30 -130 52 -147 9 -7 41 -13 70 -13 l53 0 0 -75 0 -75 -53 0 c-39 0 -58 -5 -70 -17 -19 -22 -57 -108 -57 -131 0 -9 19 -36 42 -59 l42 -43 -54 -55 -54 -55 -46 45 c-25 25 -51 45 -57 45 -17 0 -106 -41 -125 -58 -13 -11 -18 -30 -18 -74 l0 -58 -75 0 -75 0 0 58 c0 44 -5 63 -17 74 -20 17 -109 58 -126 58 -6 0 -32 -20 -57 -45 l-46 -45 -57 58 -58 59 38 33 c55 48 57 53 32 121 -27 73 -47 89 -116 89 l-53 0 0 75 0 75 58 0 c44 0 63 5 74 18 17 19 58 108 58 125 0 6 -20 32 -45 57 l-45 46 55 54 54 53 45 -41 c25 -23 52 -42 60 -42 19 0 108 40 129 58 12 11 17 30 17 69 l0 53 75 0 75 0 0 -53z"/>
        <path d="M529 955 c-260 -83 -333 -402 -134 -584 135 -122 325 -123 458 -1 78 71 110 136 115 235 3 64 0 91 -18 137 -28 74 -93 146 -171 188 -75 40 -173 50 -250 25z m196 -119 c92 -43 142 -130 132 -234 -8 -93 -52 -156 -132 -193 -50 -23 -142 -25 -193 -3 -116 48 -174 198 -121 314 27 60 54 88 114 116 66 31 134 31 200 0z"/>
    </g>

</svg>
