<!DOCTYPE svg PUBLIC "-//W3C//DTD SVG 20010904//EN" "http://www.w3.org/TR/2001/REC-SVG-20010904/DTD/svg10.dtd">
<svg version="1.0" xmlns="http://www.w3.org/2000/svg" viewBox="0 0 1350 1350" preserveAspectRatio="xMidYMid meet">
    <g>
        <path d="M532 1334 c-21 -15 -22 -21 -22 -178 l0 -162 -35 -13 c-61 -22 -67 -46 -63 -263 l3 -190 28 -24 c28 -24 31 -24 237 -24 l208 0 26 31 c26 30 26 31 26 220 0 209 -4 226 -60 249 l-30 12 0 153 c0 139 -2 155 -21 179 -20 26 -22 26 -148 26 -98 0 -131 -3 -149 -16z"/>
        <path d="M103 1062 c-35 -27 -43 -65 -43 -193 0 -73 -4 -119 -10 -119 -6 0 -19 -9 -30 -20 -19 -19 -20 -33 -20 -202 0 -101 4 -188 8 -194 18 -28 56 -34 214 -34 175 0 190 4 217 57 19 38 13 60 -24 82 -61 36 -66 63 -62 304 2 117 7 226 12 244 6 28 3 37 -23 63 -30 29 -33 30 -124 30 -73 0 -98 -4 -115 -18z"/>
        <path d="M1030 1065 c-40 -21 -56 -59 -42 -99 8 -21 12 -105 12 -243 0 -202 -1 -211 -23 -244 -12 -19 -35 -40 -51 -48 -25 -12 -28 -17 -22 -50 3 -21 16 -45 31 -58 25 -22 34 -23 199 -23 232 0 216 -16 216 223 0 100 -4 187 -8 193 -4 6 -17 16 -29 23 -22 11 -23 18 -23 130 0 135 -10 176 -51 196 -36 19 -174 19 -209 0z"/>
        <path d="M627 445 c-145 -51 -160 -237 -25 -306 78 -40 183 -7 223 71 19 37 19 113 0 149 -20 39 -69 78 -113 91 -44 12 -38 12 -85 -5z"/>
        <path d="M175 280 c-17 -5 -46 -25 -64 -44 -27 -27 -35 -45 -39 -84 -8 -91 48 -152 141 -152 146 0 204 147 97 244 -22 20 -46 36 -53 36 -6 0 -21 2 -32 4 -11 3 -34 1 -50 -4z"/>
        <path d="M1094 279 c-41 -12 -104 -81 -105 -117 -4 -102 49 -162 144 -162 91 0 147 54 147 142 0 41 -5 54 -36 88 -21 23 -51 44 -72 50 -42 11 -37 11 -78 -1z"/>
    </g>

</svg>
