<svg width="850" height="1350" xmlns="http://www.w3.org/2000/svg" preserveAspectRatio="xMidYMid meet">
    <g>
        <path d="m351.08111,1184.25109c-41.49994,-11.91685 -75.58297,-23.74962 -93.08361,-57.91685c-36.83347,-90.66775 -15.74962,-115.58286 -9.74974,-151.25003c87.41668,-305 84.16665,-317.33329 82.75009,-334.0835c-6.41679,-35.58321 -10.75009,-41.9165 -30.75009,-49.9165c-28,-10 -43,-9 -106,7c-34,8 -38,-13 -10,-40c44.91303,-42.49983 163.08223,-67.25026 225.41668,-56.41668c88,14 123.58332,46.41668 131.58332,87.41668c12,63 11.08327,84.49948 6,118c-96,299 -93,348 -77,370c11,15 26,19 80,18c19.4996,-0.83335 41.08281,-3.41679 61,5c70.5048,50.0828 -75.66497,73 -147.66647,87.41691c-44.5839,5.49983 -62.24946,8.66659 -112.50018,-3.25003z"/>
        <ellipse cx="407.92489" cy="264.17255" rx="145.00336" ry="133.33643"/>
    </g>
</svg>
