<!DOCTYPE svg PUBLIC "-//W3C//DTD SVG 20010904//EN" "http://www.w3.org/TR/2001/REC-SVG-20010904/DTD/svg10.dtd">
<svg version="1.0" xmlns="http://www.w3.org/2000/svg" viewBox="0 0 1250 1350" preserveAspectRatio="xMidYMid meet">
    <g>
        <path d="M232 1338 c-24 -31 -21 -55 13 -126 l34 -72 -117 0 c-90 0 -123 -4 -140 -16 l-22 -15 0 -488 c0 -460 1 -489 18 -504 16 -15 50 -17 275 -17 l257 0 0 -28 c0 -48 25 -72 75 -72 50 0 75 24 75 72 l0 28 258 0 c238 0 260 1 275 18 15 17 17 66 17 505 l0 486 -22 15 c-17 12 -50 16 -140 16 l-117 0 35 74 c33 69 35 77 22 103 -11 23 -20 29 -57 31 -56 4 -66 -6 -121 -117 l-44 -91 -181 0 -181 0 -39 82 c-57 116 -68 128 -120 128 -23 0 -47 -6 -53 -12z m192 -618 l122 -120 66 66 c93 94 92 95 250 -62 71 -71 134 -137 139 -147 16 -29 1 -57 -29 -57 -21 0 -52 25 -142 115 -63 63 -119 115 -124 115 -5 0 -40 -29 -77 -65 -37 -36 -75 -65 -85 -65 -20 0 -291 264 -300 292 -7 24 12 48 39 48 12 0 66 -46 141 -120z"/>
    </g>

</svg>
