<svg viewBox="0 0 20 16" xmlns="http://www.w3.org/2000/svg">
    <g>
        <g>
            <path d="m7.97925,13.875c-0.02498,-0.0625 -0.03358,-0.1156 -0.02511,-0.1585c0.00843,-0.0427 -0.02061,-0.0782 -0.0872,-0.1054c-0.0666,-0.0273 -0.09983,-0.0489 -0.09983,-0.0643c0,-0.0156 -0.04773,-0.0274 -0.1434,-0.0351c-0.09564,-0.0078 -0.14337,-0.0118 -0.14337,-0.0118l-0.162,0l-0.13712,0l-3.59065,0c-0.54856,0 -1.01821,-0.1834 -1.40891,-0.5509c-0.39061,-0.3672 -0.5859,-0.8085 -0.5859,-1.324l0,-8.2502c0,-0.51562 0.19524,-0.95691 0.5859,-1.3241c0.3907,-0.36724 0.86035,-0.55096 1.40891,-0.55096l3.98956,0c0.10807,0 0.19305,-0.02516 0.25554,-0.0761c0.06223,-0.05073 0.10371,-0.12696 0.12459,-0.2285c0.02078,-0.10159 0.03332,-0.19325 0.03751,-0.2753c0.0041,-0.08201 0.00209,-0.18557 -0.00629,-0.31055c-0.00825,-0.12495 -0.0124,-0.20306 -0.0124,-0.23446c0,-0.10155 -0.03952,-0.18926 -0.11843,-0.26364c-0.079,-0.07404 -0.17245,-0.11119 -0.28048,-0.11119l-3.9896,0c-0.989,0 -1.83476,0.33009 -2.53716,0.99023c-0.70223,0.66015 -1.05341,1.455 -1.05341,2.38469l0,8.24998c0,0.9296 0.35118,1.7246 1.05341,2.3845c0.7024,0.6605 1.54816,0.9906 2.53716,0.9906l3.98973,0c0.10808,0 0.1931,-0.0255 0.25555,-0.0761c0.06222,-0.0509 0.10371,-0.127 0.12458,-0.2287c0.02079,-0.1013 0.03332,-0.1935 0.03751,-0.2753c0.00411,-0.082 0.0021,-0.1854 -0.00629,-0.3104c-0.00834,-0.1251 -0.0124,-0.2031 -0.0124,-0.2345"/>
            <path d="m18.94197,7.06714l-6.43232,-6.26315c-0.14968,-0.14565 -0.3271,-0.21872 -0.53206,-0.21872c-0.20496,0 -0.38239,0.07307 -0.53223,0.21872c-0.14979,0.14585 -0.22463,0.31872 -0.22463,0.51817l0,3.31572l-5.29724,0c-0.20509,0 -0.38239,0.07306 -0.53218,0.21872c-0.1498,0.14585 -0.22464,0.3186 -0.22464,0.51816l0,4.42102c0,0.19952 0.07484,0.37227 0.22464,0.51804c0.14996,0.14561 0.32722,0.21884 0.53218,0.21884l5.29728,0l0,3.31571c0,0.1994 0.07484,0.3723 0.22464,0.518c0.14979,0.1459 0.32722,0.2189 0.53222,0.2189c0.20492,0 0.38234,-0.073 0.53206,-0.2189l6.43228,-6.26281c0.1498,-0.14597 0.2247,-0.31852 0.2247,-0.51813c0,-0.19952 -0.0749,-0.37244 -0.2247,-0.51829" />
        </g>
    </g>
</svg>