<?xml version="1.0" encoding="UTF-8"?>
<svg width="113px" height="26px" viewBox="0 0 113 26" version="1.1" xmlns="http://www.w3.org/2000/svg" xmlns:xlink="http://www.w3.org/1999/xlink">
    <!-- Generator: Sketch 48.1 (47250) - http://www.bohemiancoding.com/sketch -->
    <title>logo (main)</title>
    <desc>Created with Sketch.</desc>
    <defs></defs>
    <g id="Mobile-Copy-2" stroke="none" stroke-width="1" fill="none" fill-rule="evenodd" transform="translate(-22.000000, -22.000000)">
        <g id="logo-(main)" transform="translate(21.000000, 19.000000)" fill="#000000">
            <g id="logo">
                <text id="systems" font-family="Hermes-Regular, Hermes" font-size="11" font-weight="normal" letter-spacing="1.61333346">
                    <tspan x="49" y="26">systems</tspan>
                </text>
                <text id="Treasure" font-family="Hermes" font-size="18" font-weight="normal" letter-spacing="3.3599999">
                    <tspan x="35" y="16">treasur</tspan>
                    <tspan x="106.273999" y="16">e</tspan>
                </text>
                <path d="M6.56243341,3 L20.4375666,3 C20.9877573,3 21.5037124,3.26707424 21.8213703,3.71629948 L25.7073581,9.21178301 C26.1493093,9.83678124 26.1174672,10.6804424 25.6296622,11.2703491 L14.8061077,24.3593627 C14.2096152,25.0807061 13.141298,25.1819176 12.4199546,24.5854251 C12.3376458,24.5173623 12.261955,24.4416715 12.1938923,24.3593627 L1.3703378,11.2703491 C0.882532753,10.6804424 0.850690659,9.83678124 1.29264185,9.21178301 L5.17862971,3.71629948 C5.49628763,3.26707424 6.01224265,3 6.56243341,3 Z M6.00263857,5.52314412 C5.84037602,5.75175374 5.83504172,6.05651252 5.98920445,6.29066064 L7.29559815,8.27486028 C7.30869878,8.294758 7.32283602,8.31395352 7.33795138,8.33236742 C7.57623023,8.62264444 8.00470941,8.66479729 8.29498642,8.42651844 L12.4086458,5.0497509 C12.5444853,4.93824472 12.5775577,4.74377164 12.4862144,4.5936304 C12.3873336,4.43109987 12.2108565,4.33189461 12.0206104,4.33189461 L7.19938691,4.33189461 C6.9790649,4.33189461 6.77239773,4.4386403 6.64487477,4.61830578 L6.00263857,5.52314412 Z M21.2247089,5.52314412 L20.5824727,4.61830578 C20.4549498,4.4386403 20.2482826,4.33189461 20.0279606,4.33189461 L15.2067371,4.33189461 C15.016491,4.33189461 14.840014,4.43109987 14.7411332,4.5936304 C14.6497898,4.74377164 14.6828622,4.93824472 14.8187017,5.0497509 L18.9323611,8.42651844 C19.2226381,8.66479729 19.6511173,8.62264444 19.8893961,8.33236742 C19.9045115,8.31395352 19.9186487,8.294758 19.9317494,8.27486028 L21.2381431,6.29066064 C21.3923058,6.05651252 21.3869715,5.75175374 21.2247089,5.52314412 Z M17.0833408,8.21379507 L13.9261656,5.73393471 C13.6796238,5.54028399 13.3326418,5.54028399 13.0861,5.73393471 L9.92892483,8.21379507 C9.63358793,8.44577279 9.58222515,8.87324576 9.81420287,9.16858266 C9.94311698,9.3327066 10.1402581,9.42854267 10.3489576,9.42854267 L16.663308,9.42854267 C17.0388577,9.42854267 17.3433008,9.12409952 17.3433008,8.74854985 C17.3433008,8.53985027 17.2474647,8.34270918 17.0833408,8.21379507 Z M18.4605463,11.1576793 C18.4932846,11.0766977 18.5101138,10.9901671 18.5101138,10.9028183 C18.5101138,10.5272686 18.2056706,10.2228255 17.830121,10.2228255 L9.39602884,10.2228255 C9.31060538,10.2228255 9.22594679,10.2389211 9.14648351,10.27027 C8.79713672,10.4080901 8.62566045,10.8030169 8.76348053,11.1523636 L12.9289979,21.7111306 C12.9973854,21.8844795 13.1339182,22.0221664 13.3066853,22.0920106 C13.6548596,22.2327664 14.0512158,22.0646205 14.1919716,21.7164462 L18.4605463,11.1576793 Z M7.39641338,10.6322948 C7.28861514,10.3836971 7.04351224,10.2228255 6.77254859,10.2228255 L4.10735117,10.2228255 C3.95435043,10.2228255 3.80582073,10.2744244 3.68577299,10.369281 C3.39110846,10.6021122 3.34098264,11.029732 3.57381384,11.3243965 L10.5149852,20.1089452 C10.644926,20.2733945 10.8692534,20.329831 11.0615439,20.246449 C11.2957517,20.1448906 11.4032853,19.8726983 11.3017269,19.6384905 L7.39641338,10.6322948 Z M19.6158275,10.6322948 L15.710514,19.6384905 C15.6089555,19.8726983 15.7164891,20.1448906 15.950697,20.246449 C16.1429874,20.329831 16.3673148,20.2733945 16.4972556,20.1089452 L23.438427,11.3243965 C23.6712582,11.029732 23.6211324,10.6021122 23.3264678,10.369281 C23.2064201,10.2744244 23.0578904,10.2228255 22.9048897,10.2228255 L20.2396922,10.2228255 C19.9687286,10.2228255 19.7236257,10.3836971 19.6158275,10.6322948 Z M6.37175016,8.38888549 L5.69412295,7.30161833 C5.4954858,6.98290084 5.07608701,6.88555649 4.75736952,7.08419364 C4.68506892,7.12925418 4.62187964,7.18749969 4.57109104,7.25589814 L3.76375138,8.34316529 C3.53986367,8.6446812 3.60279377,9.07060499 3.90430968,9.2944927 C4.02154073,9.38154148 4.16367845,9.42854267 4.30969423,9.42854267 L5.7946611,9.42854267 C6.17021076,9.42854267 6.47465392,9.12409952 6.47465392,8.74854985 C6.47465392,8.62139872 6.43900341,8.49679475 6.37175016,8.38888549 Z M20.7630217,8.42043209 C20.7076552,8.520932 20.6786202,8.63380804 20.6786202,8.74854985 C20.6786202,9.12409952 20.9830633,9.42854267 21.358613,9.42854267 L22.7025466,9.42854267 C22.8485624,9.42854267 22.9907001,9.38154148 23.1079312,9.2944927 C23.4094471,9.07060499 23.4723772,8.6446812 23.2484895,8.34316529 L22.4769684,7.30413608 C22.4188374,7.22584944 22.3445494,7.16098051 22.2591433,7.11392936 C21.9302073,6.93271492 21.5166487,7.05246689 21.3354343,7.38140287 L20.7630217,8.42043209 Z" id="Treasure_Logo_White"></path>
            </g>
        </g>
    </g>
</svg>