<!DOCTYPE svg PUBLIC "-//W3C//DTD SVG 20010904//EN" "http://www.w3.org/TR/2001/REC-SVG-20010904/DTD/svg10.dtd">
<svg version="1.0" xmlns="http://www.w3.org/2000/svg" viewBox="0 0 800 750" preserveAspectRatio="xMidYMid meet">
    <g>
        <path d="M152 738 c-8 -8 -12 -49 -12 -119 l0 -106 -46 -24 c-74 -38 -89 -65 -89 -164 0 -98 14 -125 85 -162 41 -22 54 -23 185 -21 l140 3 3 174 c3 188 0 201 -49 201 l-29 0 0 103 c0 67 -4 107 -12 115 -7 7 -42 12 -88 12 -46 0 -81 -5 -88 -12z"/>
        <path d="M648 599 l-88 -60 0 -214 0 -215 84 -55 c84 -55 121 -66 144 -43 17 17 17 619 0 636 -22 22 -52 11 -140 -49z"/>
        <path d="M441 507 c-8 -10 -11 -65 -9 -188 l3 -174 50 0 50 0 0 185 0 185 -41 3 c-26 2 -45 -2 -53 -11z"/>
    </g>

</svg>
