<svg viewBox="0 0 800.8070200681686 1098.6666699647903" xmlns="http://www.w3.org/2000/svg"
     preserveAspectRatio="xMidYMid meet">

    <g>
        <g>
            <path d="m25.80702,1073.66667l-25,-24l0,-501l0,-501l25,-24l24,-25l351,0l351,0l24,25l25,24l0,501l0,501l-25,24l-24,25l-351,0l-351,0l-24,-25zm723.68957,-41c2.37939,-0.5173 1.31043,-21 1.31043,-190l0,-174l-350,0l-350,0l0,174c0,232.44802 1,192.2413 0.62077,190.68965c220.58547,1.24147 389.89748,3.31043 698.0688,-0.68965zm-70.68957,-534c32,-20 62,-71 62,-106c0,-31 -33,-85 -61,-99c-63,-33 -145,-9 -174,51c-19,40 -19,56 -1,99c17,40 68,75 111,75c17,0 45,-9 63,-20zm-391,-125c59,-39 66,-134 14,-186c-97,-96 -257,20 -194,140c35,66 117,87 180,46z"/>
            <path d="m280.42606,824.36508l0,-25l210,0l210,0l0,25l0,25l-210,0l-210,0l0,-25z"/>
            <rect x="99.99961" y="699.36237" width="152.38036" height="153.01528"/>
            <path d="m279.47369,758.33359l0,-25l129.84158,0l129.84158,0l0,25l0,25l-129.84158,0l-129.84158,0l0,-25z"/>
        </g>
    </g>
</svg>
