<!DOCTYPE svg PUBLIC "-//W3C//DTD SVG 20010904//EN" "http://www.w3.org/TR/2001/REC-SVG-20010904/DTD/svg10.dtd">
<svg version="1.0" xmlns="http://www.w3.org/2000/svg" viewBox="0 0 850 850" preserveAspectRatio="xMidYMid meet">
    <g>
        <path d="M637 732 c-64 -64 -117 -125 -117 -134 0 -15 -6 -14 -49 8 -28 13 -75 29 -105 36 -139 27 -305 -68 -351 -201 -19 -58 -19 -183 0 -249 22 -73 104 -155 177 -177 66 -19 191 -19 249 0 133 46 228 212 201 351 -7 30 -23 77 -36 105 -22 43 -23 49 -8 49 24 0 252 230 252 255 0 26 -49 75 -75 75 -13 0 -63 -43 -138 -118z m-226 -240 c91 -47 132 -157 93 -250 -56 -136 -226 -171 -329 -67 -103 102 -69 271 65 329 54 24 111 20 171 -12z"/>
    </g>

</svg>
