<!DOCTYPE svg PUBLIC "-//W3C//DTD SVG 20010904//EN" "http://www.w3.org/TR/2001/REC-SVG-20010904/DTD/svg10.dtd">
<svg version="1.0" xmlns="http://www.w3.org/2000/svg" viewBox="0 0 2000 2000" preserveAspectRatio="xMidYMid meet">
    <g>
        <path d="M1507 1936 c-155 -43 -272 -213 -254 -368 l6 -48 -298 -150 -298 -149 -34 35 c-18 19 -58 47 -89 61 -46 23 -69 27 -140 28 -73 0 -93 -4 -142 -28 -74 -36 -139 -101 -175 -175 -24 -49 -28 -69 -28 -142 0 -73 4 -93 28 -142 36 -74 101 -139 175 -175 49 -24 69 -28 142 -28 72 0 93 4 140 27 30 15 70 43 89 62 l34 35 296 -148 296 -149 0 -83 c0 -72 4 -93 28 -141 36 -73 101 -139 175 -175 49 -24 69 -28 142 -28 73 0 93 4 142 28 74 36 139 101 175 175 24 49 28 69 28 142 -1 65 -6 96 -22 133 -30 65 -115 151 -182 184 -48 24 -68 28 -141 28 -71 -1 -94 -5 -140 -28 -31 -14 -71 -42 -89 -61 l-34 -35 -296 148 -296 149 0 82 0 82 296 149 296 148 34 -35 c19 -19 59 -47 89 -62 47 -23 68 -27 140 -27 73 0 93 4 142 28 74 36 139 101 175 175 24 49 28 69 28 142 -1 65 -6 96 -22 133 -30 64 -115 151 -178 182 -64 32 -168 41 -238 21z m188 -179 c114 -65 114 -249 0 -314 -86 -49 -206 -19 -252 62 -31 55 -31 135 0 190 46 81 166 111 252 62z m-1200 -600 c114 -65 114 -249 0 -314 -55 -31 -135 -31 -190 0 -54 31 -85 87 -85 157 0 108 72 180 180 180 39 0 67 -7 95 -23z m1200 -600 c114 -65 114 -249 0 -314 -55 -31 -135 -31 -190 0 -114 65 -114 249 0 314 55 31 135 31 190 0z"/>
    </g>

</svg>
