<?xml version="1.0" encoding="UTF-8" standalone="no"?>
<svg viewBox="0 0 34 36" version="1.1" xmlns="http://www.w3.org/2000/svg" xmlns:xlink="http://www.w3.org/1999/xlink">
    <!-- Generator: Sketch 48.1 (47250) - http://www.bohemiancoding.com/sketch -->
    <title>Share Button</title>
    <desc>Created with Sketch.</desc>
    <defs>
        <filter x="-3.5%" y="-2.0%" width="107.0%" height="104.1%" filterUnits="objectBoundingBox" id="filter-1">
            <feOffset dx="0" dy="0" in="SourceAlpha" result="shadowOffsetOuter1"></feOffset>
            <feGaussianBlur stdDeviation="3.5" in="shadowOffsetOuter1" result="shadowBlurOuter1"></feGaussianBlur>
            <feColorMatrix values="0 0 0 0 0.553119685   0 0 0 0 0.553119685   0 0 0 0 0.553119685  0 0 0 0.5 0" type="matrix" in="shadowBlurOuter1" result="shadowMatrixOuter1"></feColorMatrix>
            <feMerge>
                <feMergeNode in="shadowMatrixOuter1"></feMergeNode>
                <feMergeNode in="SourceGraphic"></feMergeNode>
            </feMerge>
        </filter>
        <polygon id="path-2" points="0 0 20.8 0 20.8 22.4 0 22.4"></polygon>
        <linearGradient x1="5.70217797%" y1="18.222172%" x2="100%" y2="50%" id="linearGradient-4">
            <stop stop-color="#FE947C" offset="0%"></stop>
            <stop stop-color="#FFBD71" offset="100%"></stop>
        </linearGradient>
    </defs>
    <g id="PROMO-CAMPAIGN-CREATION.-MAIN-OBJECTIVE-Copy-25" stroke="none" stroke-width="1" fill="none" fill-rule="evenodd" transform="translate(-952.000000, -483.000000)">
        <g id="Card_Opened(In-Store)" filter="url(#filter-1)" transform="translate(701.000000, 238.000000)">
            <g id="Middle-Group" transform="translate(0.000000, 232.000000)">
                <g id="Share-Button" transform="translate(257.600000, 20.000000)">
                    <mask id="mask-3" fill="white">
                        <use xlink:href="#path-2"></use>
                    </mask>
                    <g id="Clip-2"></g>
                    <path d="M16.850724,21.1395187 C15.3571942,21.1395187 14.1430898,19.90695 14.1430898,18.3906625 C14.1430898,16.8744187 15.3571942,15.64185 16.850724,15.64185 C18.3442969,15.64185 19.5584013,16.8744187 19.5584013,18.3906625 C19.5584013,19.90695 18.3442969,21.1395187 16.850724,21.1395187 M3.94927599,13.944175 C2.45570309,13.944175 1.24159873,12.7116062 1.24159873,11.1953187 C1.24159873,9.67903125 2.45570309,8.44650625 3.94927599,8.44650625 C5.44284889,8.44650625 6.65695325,9.67903125 6.65695325,11.1953187 C6.65695325,12.7116062 5.43823776,13.944175 3.94927599,13.944175 M16.850724,1.2604375 C18.3442969,1.2604375 19.5584013,2.49300625 19.5584013,4.00929375 C19.5584013,5.5255375 18.3442969,6.75810625 16.850724,6.75810625 C15.3571942,6.75810625 14.1430898,5.5255375 14.1430898,4.00929375 C14.1430898,2.49300625 15.3617191,1.2604375 16.850724,1.2604375 M16.850724,14.3906875 C15.581674,14.3906875 14.4500527,15.0046312 13.7261495,15.9534812 L7.66484993,12.5162188 C7.80688975,12.1023437 7.88476171,11.6557875 7.88476171,11.1953188 C7.88476171,10.7302125 7.80688975,10.2883375 7.6602819,9.8697375 L13.7169704,6.4372 C14.4363055,7.3906875 15.5724949,8.00926875 16.846156,8.00926875 C19.0177794,8.00926875 20.7908208,6.21394375 20.7908208,4.0046125 C20.7908208,1.795325 19.0223905,0 16.846156,0 C14.6699645,0 12.9014911,1.795325 12.9014911,4.0046125 C12.9014911,4.4697625 12.9793631,4.916275 13.1259709,5.3302375 L7.07385048,8.762775 C6.35455839,7.80465 5.21832598,7.1906625 3.94470796,7.1906625 C1.77304142,7.1906625 0,8.98603125 0,11.1953188 C0,13.4046063 1.77304142,15.199975 3.94927599,15.199975 C5.2229371,15.199975 6.35912642,14.5813937 7.08298654,13.623225 L13.1397612,17.0604437 C12.9931102,17.4790437 12.9106272,17.9302375 12.9106272,18.3953 C12.9106272,20.5999937 14.6791006,22.4 16.855292,22.4 C19.0314835,22.4 20.8,20.6046313 20.8,18.3953 C20.8,16.1860125 19.0269586,14.3906875 16.850724,14.3906875" id="Fill-1" fill="url(#linearGradient-4)" mask="url(#mask-3)"></path>
                </g>
            </g>
        </g>
    </g>
</svg>