<!DOCTYPE svg PUBLIC "-//W3C//DTD SVG 20010904//EN" "http://www.w3.org/TR/2001/REC-SVG-20010904/DTD/svg10.dtd">
<svg version="1.0" xmlns="http://www.w3.org/2000/svg" viewBox="0 0 1450 1450" preserveAspectRatio="xMidYMid meet">
    <g>
        <path d="M347 1395 c-45 -46 -54 -93 -30 -142 37 -76 121 -103 183 -61 80 54 90 138 24 203 -31 31 -40 35 -89 35 -49 0 -57 -3 -88 -35z"/>
        <path d="M1030 1394 c-37 -34 -40 -40 -40 -91 0 -49 4 -59 33 -88 59 -59 139 -56 192 7 33 39 40 72 26 118 -17 57 -61 90 -122 90 -42 0 -54 -5 -89 -36z"/>
        <path d="M259 1131 c-34 -35 -35 -43 -9 -184 18 -101 19 -116 5 -255 -21 -220 -45 -446 -48 -448 -1 0 -40 -14 -87 -29 -110 -36 -120 -45 -120 -111 0 -61 21 -84 78 -84 53 0 258 69 282 95 13 14 24 46 31 86 6 35 14 66 19 69 6 3 166 23 357 44 618 68 646 72 665 97 20 24 23 80 9 173 -5 34 -15 102 -21 151 -7 50 -18 105 -26 123 -25 61 -34 62 -518 62 l-434 0 -4 30 -5 30 423 0 422 0 30 25 c16 14 33 36 36 50 8 30 -15 80 -43 95 -13 6 -195 10 -516 10 l-497 0 -29 -29z"/>
    </g>

</svg>
