<svg viewBox="0 0 4500 4700" xmlns="http://www.w3.org/2000/svg" preserveAspectRatio="xMidYMid meet">

    <g>
        <path d="m844,3537.99984c-12,-2 -34,-18 -50,-34l-29,-30l-3,-763l-2,-763l-53,-54c-28,-30 -67,-80 -84,-110c-34,-57 -73,-188 -73,-246c0,-18 50,-234 112,-480c97,-388 115,-450 139,-477l27,-31l1431,0l1431,0l29,30c26,27 39,72 140,477c61,246 111,463 111,481c0,56 -38,186 -71,244c-17,30 -55,80 -85,112l-54,58l-2,761l-3,762l-33,32l-32,33l-575,0l-575,0l-32,-33l-33,-32l-3,-395l-3,-395l-209,0l-209,0l-3,395l-3,395l-33,32l-32,33l-558,1c-306,1 -567,0 -578,-3zm988,-609l3,-396l33,-29l32,-29l360,0l360,0l32,29l33,29l3,396l3,396l424,0l425,0l0,-642l0,-643l-88,-1c-145,-2 -262,-56 -362,-168l-26,-29l-55,55c-58,59 -167,118 -249,137c-160,37 -345,-24 -463,-153l-37,-41l-26,33c-34,42 -130,108 -208,140c-85,36 -230,37 -326,3c-73,-26 -176,-95 -214,-143l-25,-32l-49,48c-106,105 -212,150 -349,151l-83,0l0,643l0,642l425,0l424,0l3,-396zm-665,-1119c48,-20 122,-93 150,-148c14,-29 27,-77 32,-118c9,-82 32,-120 84,-133c42,-11 91,6 113,39c8,12 18,53 23,91c12,89 38,148 91,202c57,60 118,86 200,85c87,0 143,-26 206,-95c53,-58 84,-131 84,-194c0,-89 62,-147 136,-128c51,13 74,48 84,130c12,91 32,136 88,196c60,65 117,90 202,91c82,0 143,-25 201,-85c53,-54 79,-112 90,-200c13,-108 58,-151 138,-133c50,11 72,45 81,128c11,92 42,158 103,214c60,56 108,75 188,76c140,2 261,-103 288,-251c8,-42 0,-86 -86,-429l-95,-383l-1308,0l-1308,0l-93,373c-100,397 -104,426 -68,506c68,155 229,226 376,166z"/>
    </g>
</svg>
