<?xml version="1.0" encoding="UTF-8" standalone="no"?>
<svg viewBox="0 0 37 34" version="1.1" xmlns="http://www.w3.org/2000/svg" xmlns:xlink="http://www.w3.org/1999/xlink">
    <!-- Generator: Sketch 48.1 (47250) - http://www.bohemiancoding.com/sketch -->
    <title>In Store Icon</title>
    <desc>Created with Sketch.</desc>
    <defs>
        <filter x="-3.5%" y="-2.0%" width="107.0%" height="104.1%" filterUnits="objectBoundingBox" id="filter-1">
            <feOffset dx="0" dy="0" in="SourceAlpha" result="shadowOffsetOuter1"></feOffset>
            <feGaussianBlur stdDeviation="3.5" in="shadowOffsetOuter1" result="shadowBlurOuter1"></feGaussianBlur>
            <feColorMatrix values="0 0 0 0 0.553119685   0 0 0 0 0.553119685   0 0 0 0 0.553119685  0 0 0 0.5 0" type="matrix" in="shadowBlurOuter1" result="shadowMatrixOuter1"></feColorMatrix>
            <feMerge>
                <feMergeNode in="shadowMatrixOuter1"></feMergeNode>
                <feMergeNode in="SourceGraphic"></feMergeNode>
            </feMerge>
        </filter>
        <linearGradient x1="5.70217797%" y1="18.222172%" x2="100%" y2="50%" id="linearGradient-2">
            <stop stop-color="#FC8C7D" offset="0%"></stop>
            <stop stop-color="#FFBF70" offset="100%"></stop>
        </linearGradient>
    </defs>
    <g id="PROMO-CAMPAIGN-CREATION.-MAIN-OBJECTIVE-Copy-25" stroke="none" stroke-width="1" fill="none" fill-rule="evenodd" transform="translate(-911.000000, -483.000000)">
        <g id="Card_Opened(In-Store)" filter="url(#filter-1)" transform="translate(701.000000, 238.000000)" fill="url(#linearGradient-2)">
            <g id="Middle-Group" transform="translate(0.000000, 232.000000)">
                <g id="In-Store-Button" transform="translate(203.600000, 20.800000)">
                    <path d="M32.95625,8.22857143 C31.85715,8.22857143 30.9625,7.3056 30.9625,6.17142857 C30.9625,5.79291429 30.6377,5.48571429 30.2375,5.48571429 C29.8373,5.48571429 29.5125,5.79291429 29.5125,6.17142857 C29.5125,7.3056 28.61785,8.22857143 27.51875,8.22857143 C26.41965,8.22857143 25.525,7.3056 25.525,6.17142857 C25.525,5.79291429 25.2002,5.48571429 24.8,5.48571429 C24.3998,5.48571429 24.075,5.79291429 24.075,6.17142857 C24.075,7.3056 23.18035,8.22857143 22.08125,8.22857143 C20.98215,8.22857143 20.0875,7.3056 20.0875,6.17142857 C20.0875,5.79291429 19.7627,5.48571429 19.3625,5.48571429 C18.9623,5.48571429 18.6375,5.79291429 18.6375,6.17142857 C18.6375,7.3056 17.74285,8.22857143 16.64375,8.22857143 C15.57075,8.22857143 14.69205,7.34811429 14.65145,6.25097143 L15.94195,1.37142857 L33.6595,1.37142857 L34.95,6.25097143 C34.90795,7.34811429 34.02925,8.22857143 32.95625,8.22857143 Z M33.5,17.8285714 L27.7,17.8285714 L27.7,13.0285714 C27.7,12.6500571 27.3752,12.3428571 26.975,12.3428571 L22.625,12.3428571 C22.2248,12.3428571 21.9,12.6500571 21.9,13.0285714 L21.9,17.8285714 L16.1,17.8285714 L16.1,9.54514286 C16.27835,9.57394286 16.45815,9.6 16.64375,9.6 C17.74865,9.6 18.73175,9.08022857 19.3625,8.27382857 C19.99325,9.08022857 20.97635,9.6 22.08125,9.6 C23.18615,9.6 24.16925,9.08022857 24.8,8.27382857 C25.43075,9.08022857 26.41385,9.6 27.51875,9.6 C28.62365,9.6 29.60675,9.08022857 30.2375,8.27382857 C30.86825,9.08022857 31.85135,9.6 32.95625,9.6 C33.14185,9.6 33.32165,9.57394286 33.5,9.54514286 L33.5,17.8285714 Z M36.37825,6.00548571 L34.92825,0.519771429 C34.8485,0.213942857 34.55705,0 34.225,0 L15.375,0 C15.04295,0 14.7515,0.213942857 14.67175,0.519771429 L13.22175,6.00548571 C13.20725,6.05897143 13.2,6.1152 13.2,6.17142857 C13.2,7.32068571 13.77565,8.33417143 14.65,8.9568 L14.65,18.5142857 C14.65,18.8928 14.9748,19.2 15.375,19.2 L22.625,19.2 C23.0252,19.2 23.35,18.8928 23.35,18.5142857 L23.35,13.7142857 L26.25,13.7142857 L26.25,18.5142857 C26.25,18.8928 26.5748,19.2 26.975,19.2 L34.225,19.2 C34.6252,19.2 34.95,18.8928 34.95,18.5142857 L34.95,8.9568 C35.82435,8.33417143 36.4,7.32068571 36.4,6.17142857 C36.4,6.1152 36.39275,6.05897143 36.37825,6.00548571 Z" id="In-Store-Icon"></path>
                </g>
            </g>
        </g>
    </g>
</svg>