<!DOCTYPE svg PUBLIC "-//W3C//DTD SVG 20010904//EN" "http://www.w3.org/TR/2001/REC-SVG-20010904/DTD/svg10.dtd">
<svg version="1.0" xmlns="http://www.w3.org/2000/svg" viewBox="0 0 800 1200" preserveAspectRatio="xMidYMid meet">
    <g>
        <path d="M0 758 l0 -441 107 -109 107 -108 62 0 63 0 3 -32 c3 -31 5 -33 43 -33 38 0 40 2 43 32 l3 33 62 0 62 0 113 113 112 112 0 438 0 437 -390 0 -390 0 0 -442z m680 -20 l0 -363 -82 -82 c-78 -78 -85 -83 -125 -83 l-42 0 -3 98 -3 97 -40 0 -40 0 -3 -98 -3 -97 -42 0 c-39 0 -47 5 -124 82 l-83 83 0 362 0 363 295 0 295 0 0 -362z"/>
        <path d="M485 1022 c-33 -7 -63 -32 -79 -67 -20 -42 -20 -77 0 -118 11 -22 -9 -6 -64 53 l-80 85 -31 -29 c-17 -17 -31 -35 -31 -41 0 -7 32 -46 70 -89 73 -80 85 -98 48 -72 -38 27 -86 20 -123 -17 -60 -60 -59 -134 1 -186 48 -43 92 -42 140 2 44 40 55 96 30 148 -13 26 3 13 63 -51 l79 -85 31 29 c17 17 31 37 31 46 0 8 -25 40 -56 70 -30 30 -60 63 -65 73 -9 16 -8 17 10 8 39 -21 81 -13 116 22 19 19 37 46 41 60 21 85 -53 175 -131 159z m33 -123 c-2 -6 -8 -10 -13 -10 -5 0 -11 4 -13 10 -2 6 4 11 13 11 9 0 15 -5 13 -11z m-238 -270 c0 -5 -7 -9 -15 -9 -15 0 -20 12 -9 23 8 8 24 -1 24 -14z"/>
    </g>

</svg>
