<svg viewBox="0 0 1300 1100" xmlns="http://www.w3.org/2000/svg" preserveAspectRatio="xMidYMid meet">
    <g>
        <path d="m16,1058c-14,-19 -16,-62 -16,-270c0,-137 3,-248 6,-248c3,0 45,14 92,31c252,89 517,118 763,83c127,-17 310,-62 382,-93c27,-12 51,-21 53,-21c2,0 4,114 4,253c0,233 -1,255 -18,270c-17,15 -75,17 -635,17l-616,0l-15,-22zm705,-268c12,-7 19,-21 19,-40l0,-30l-90,0l-90,0l0,30c0,17 7,33 18,39c22,14 118,14 143,1z"/>
        <path d="m505,589.80498c-91,-11.0463 -263,-46.94678 -397,-83.76778l-108,-28.53628l0,-112.30405c0,-108.62195 1,-112.30405 26,-134.39665c25,-21.17208 31,-22.0926 210,-24.85418l184,-3.6821l0,-35.90048c0,-46.02625 19,-80.08568 65,-117.8272l36,-28.53628l127,0l127,0l39,29.4568c43,32.21838 66,74.56253 66,121.5093l0,31.29785l184,3.6821c180,2.76158 185,3.6821 210,25.7747c26,22.0926 27,23.93365 24,132.5556l-3,110.463l-70,22.0926c-188,58.9136 -451,104.93985 -588,102.17828c-34,-0.92053 -93,-5.52315 -132,-9.20525zm235,-77.3241c0,-23.01313 -1,-23.01313 -90,-23.01313c-89,0 -90,0 -90,23.01313c0,23.01313 1,23.01313 90,23.01313c89,0 90,0 90,-23.01313zm-10,-333.23005c0,-34.97995 -11,-47.8673 -48,-57.07255c-36,-10.12578 -91,0.92053 -104,19.33103c-4,6.44368 -8,23.01313 -8,37.74153l0,24.85418l80,0l80,0l0,-24.85418z"/>
    </g>
</svg>
