<!DOCTYPE svg PUBLIC "-//W3C//DTD SVG 20010904//EN" "http://www.w3.org/TR/2001/REC-SVG-20010904/DTD/svg10.dtd">
<svg version="1.0" xmlns="http://www.w3.org/2000/svg" viewBox="0 0 950 950" preserveAspectRatio="xMidYMid meet">
    <g>
        <path d="M0 799 l0 -140 48 3 47 3 3 88 3 87 68 0 69 0 -31 -116 c-36 -137 -40 -131 83 -159 l80 -18 0 -33 c0 -18 -5 -36 -11 -40 -6 -3 -21 -28 -33 -54 -12 -26 -34 -58 -49 -71 -40 -35 -45 -78 -13 -116 14 -17 26 -39 26 -49 0 -30 56 -120 89 -143 41 -30 151 -30 192 0 33 23 89 113 89 143 0 10 12 32 26 49 32 38 27 81 -13 116 -15 13 -37 45 -49 71 -12 26 -27 51 -33 54 -6 4 -11 22 -11 40 l0 33 80 18 c123 28 119 22 83 159 l-31 116 69 0 68 0 3 -87 3 -88 48 -3 47 -3 0 140 0 141 -140 0 -140 0 0 -45 0 -45 -195 0 -195 0 0 45 0 45 -140 0 -140 0 0 -141z"/>
        <path d="M0 151 l0 -141 141 0 140 0 -3 48 -3 47 -87 3 -87 3 -3 87 -3 87 -47 3 -48 3 0 -140z"/>
        <path d="M857 283 c-4 -3 -7 -44 -7 -89 l0 -83 -87 -3 -88 -3 -3 -47 -3 -48 140 0 141 0 0 140 0 140 -43 0 c-24 0 -47 -3 -50 -7z"/>
    </g>

</svg>
