<svg viewBox="0 0 621 827" xmlns="http://www.w3.org/2000/svg" preserveAspectRatio="xMidYMid meet">

    <g>
        <title>Layer 1</title>
        <g id="svg_1">
            <path id="svg_2"
                  d="m100.5,778.499999c0,-5 -7,-10 -15,-10c-13,0 -15,-32 -15,-225c0,-193 2,-225 15,-225c8,0 15,-4 15,-10c0,-6 75,-10 206,-10c165,0 208,3 220,14c11,12 14,55 14,220c0,131 -4,206 -10,206c-5,0 -10,11 -10,25l0,25l-210,0c-133,0 -210,-4 -210,-10zm110,-250c0,-133 -1,-140 -20,-140c-11,0 -20,5 -20,10c0,6 -7,10 -15,10c-12,0 -15,20 -15,120c0,100 3,120 15,120c8,0 15,5 15,10c0,6 9,10 20,10c19,0 20,-7 20,-140zm120,0l0,-140l-25,0l-25,0l0,140l0,140l25,0l25,0l0,-140zm126,126c10,-11 14,-43 14,-126c0,-118 -8,-140 -49,-140c-20,0 -21,5 -21,140c0,135 1,140 21,140c11,0 27,-6 35,-14z"/>
            <path id="svg_3"
                  d="m50.5,188.499999l0,-60l60,0c54,0 60,-2 60,-21c0,-26 23,-49 49,-49c12,0 21,-4 21,-10c0,-6 30,-10 70,-10c40,0 70,4 70,10c0,6 9,10 21,10c26,0 49,23 49,49c0,19 6,21 60,21l60,0l0,60l0,60l-260,0l-260,0l0,-60zm330,-70c0,-6 -30,-10 -70,-10c-40,0 -70,4 -70,10c0,6 30,10 70,10c40,0 70,-4 70,-10z"/>
        </g>
    </g>
</svg>
