<?xml version="1.0" encoding="iso-8859-1"?>
<svg version="1.1" id="Layer_1" xmlns="http://www.w3.org/2000/svg" x="0px"
     y="0px"
     viewBox="0 0 30 30">
    <circle cx="29" cy="15" r="1"/>
    <circle cx="1" cy="15" r="1"/>
    <circle cx="15" cy="15" r="3"/>
    <path d="M29.803,14.408C29.803,14.408,24,5,15,5S0.197,14.408,0.197,14.408l-0.034,1.136C0.162,15.544,5,25,15,25
	s14.838-9.456,14.838-9.456L29.803,14.408z M15,22c-3.866,0-7-3.134-7-7c0-3.866,3.134-7,7-7s7,3.134,7,7C22,18.866,18.866,22,15,22
	z"/>
</svg>
